PathFileType	3	(X/Y/Z)	walking_1__fused_aligned.trc
DataRate	CameraRate	NumFrames	NumMarkers	Units	OrigDataRate	OrigDataStartFrame	OrigNumFrames
100.0	100.0	10	19	mm	100.0	764	6105
Frame#	Time	pelvis			neck			head			hip_left			hip_right			knee_left			knee_right			ankle_left			ankle_right			heel_left			heel_right			toe_left			toe_right			shoulder_left			shoulder_right			elbow_left			elbow_right			wrist_left			wrist_right			
		X1	Y1	Z1	X2	Y2	Z2	X3	Y3	Z3	X4	Y4	Z4	X5	Y5	Z5	X6	Y6	Z6	X7	Y7	Z7	X8	Y8	Z8	X9	Y9	Z9	X10	Y10	Z10	X11	Y11	Z11	X12	Y12	Z12	X13	Y13	Z13	X14	Y14	Z14	X15	Y15	Z15	X16	Y16	Z16	X17	Y17	Z17	X18	Y18	Z18	X19	Y19	Z19	
764	7.63000	-55.412334	955.776785	138.258859	-88.979753	1519.234245	231.007264	-89.225404	1589.155132	384.969063	23.580623	954.352005	138.028569	-134.405322	957.201593	138.489051	61.067385	535.839422	298.914252	-157.249977	512.465792	177.454583	60.871621	196.807087	118.798086	-154.635736	95.735403	95.553482	56.883610	169.962171	72.992515	-152.520957	45.600106	58.901898	55.713980	70.351498	243.151200	-162.603126	32.181048	286.914322	93.722375	1488.812623	181.376493	-265.022713	1447.971613	205.133367	178.406422	1202.695816	133.796760	-311.062708	1149.431772	204.099103	207.630509	952.843511	224.624804	-308.225145	912.918813	318.011610
765	7.64000	-56.123613	955.863238	138.898688	-89.311643	1519.458269	231.066290	-88.702892	1589.433929	385.051804	22.845586	954.411065	138.565384	-135.092862	957.315435	139.231909	60.216482	536.803165	303.957694	-158.126903	511.832094	172.430697	60.499011	194.688785	132.681916	-155.620713	95.772809	85.410043	56.556678	166.881896	87.704890	-153.524514	45.890020	48.248186	55.535753	71.696036	259.432825	-163.534417	31.020079	276.469567	93.064005	1489.238398	179.916300	-265.663933	1448.109779	206.723695	177.350909	1203.357324	130.100839	-311.833231	1149.516344	208.522265	208.511969	952.579244	217.520482	-306.592602	914.540626	326.844158
766	7.65000	-56.834893	955.949690	139.538516	-89.643532	1519.682294	231.125316	-88.180381	1589.712726	385.134545	22.110549	954.470124	139.102198	-135.780402	957.429277	139.974768	59.365578	537.766908	309.001136	-159.003830	511.198396	167.406810	60.126401	192.570483	146.565746	-156.605690	95.810215	75.266603	56.229745	163.801620	102.417266	-154.528071	46.179935	37.594474	55.357527	73.040575	275.714451	-164.465709	29.859109	266.024812	92.405635	1489.664172	178.456107	-266.305153	1448.247946	208.314023	176.295397	1204.018832	126.404918	-312.603753	1149.600915	212.945427	209.393429	952.314977	210.416161	-304.960059	916.162439	335.676705
767	7.66000	-57.546173	956.036142	140.178345	-89.975422	1519.906318	231.184342	-87.657869	1589.991523	385.217287	21.375512	954.529183	139.639012	-136.467942	957.543119	140.717626	58.514675	538.730651	314.044579	-159.880756	510.564698	162.382924	59.753791	190.452181	160.449576	-157.590667	95.847622	65.123163	55.902813	160.721345	117.129642	-155.531628	46.469849	26.940762	55.179301	74.385113	291.996077	-165.397000	28.698140	255.580057	91.747265	1490.089947	176.995914	-266.946374	1448.386112	209.904350	175.239885	1204.680340	122.708998	-313.374276	1149.685486	217.368589	210.274890	952.050709	203.311839	-303.327516	917.784253	344.509252
768	7.67000	-58.257452	956.122594	140.818174	-90.307312	1520.130342	231.243368	-87.135357	1590.270320	385.300028	20.640475	954.588243	140.175827	-137.155482	957.656960	141.460484	57.663772	539.694393	319.088021	-160.757683	509.931000	157.359037	59.381182	188.333879	174.333406	-158.575645	95.885028	54.979724	55.575880	157.641070	131.842018	-156.535185	46.759764	16.287050	55.001075	75.729651	308.277702	-166.328292	27.537170	245.135301	91.088895	1490.515721	175.535721	-267.587594	1448.524279	211.494678	174.184372	1205.341848	119.013077	-314.144799	1149.770058	221.791751	211.156350	951.786442	196.207517	-301.694972	919.406066	353.341799
769	7.68000	-58.968732	956.209046	141.458003	-90.639201	1520.354366	231.302394	-86.612845	1590.549117	385.382770	19.905438	954.647302	140.712641	-137.843022	957.770802	142.203343	56.812869	540.658136	324.131463	-161.634609	509.297302	152.335151	59.008572	186.215577	188.217235	-159.560622	95.922434	44.836284	55.248948	154.560795	146.554394	-157.538742	47.049679	5.633338	54.822848	77.074189	324.559328	-167.259583	26.376201	234.690546	90.430525	1490.941495	174.075529	-268.228814	1448.662445	213.085006	173.128860	1206.003357	115.317156	-314.915321	1149.854629	226.214913	212.037810	951.522175	189.103196	-300.062429	921.027879	362.174347
770	7.69000	-58.934981	955.683081	142.267697	-90.517488	1520.049226	231.863819	-85.950857	1590.288349	386.035750	19.904017	954.277939	141.573105	-137.774087	957.088233	142.962269	56.399508	540.763048	326.523312	-162.234110	508.130263	149.651576	59.386378	182.388368	199.758435	-161.117224	97.670247	36.339408	55.824227	149.434895	158.980859	-159.115301	49.658012	-3.341310	54.583111	77.741527	339.548228	-169.024218	26.071607	223.793994	90.356330	1490.474207	173.576009	-268.402331	1448.467233	214.519871	172.696103	1205.739737	112.792631	-315.288729	1149.703910	229.462331	213.477523	950.490823	182.555174	-298.132777	922.611956	369.227061
771	7.70000	-58.901230	955.157115	143.077391	-90.395775	1519.744085	232.425244	-85.288869	1590.027581	386.688731	19.902596	953.908576	142.433570	-137.705152	956.405664	143.721196	55.986148	540.867959	328.915161	-162.833611	506.963224	146.968001	59.764185	178.561159	211.299635	-162.673826	99.418061	27.842532	56.399506	144.308994	171.407323	-160.691860	52.266345	-12.315958	54.343374	78.408866	354.537128	-170.788853	25.767014	212.897442	90.282136	1490.006918	173.076489	-268.575847	1448.272021	215.954737	172.263345	1205.476118	110.268105	-315.662136	1149.553190	232.709750	214.917236	949.459471	176.007152	-296.203125	924.196034	376.279776
772	7.71000	-58.867479	954.631150	143.887086	-90.274062	1519.438945	232.986669	-84.626880	1589.766813	387.341712	19.901175	953.539213	143.294034	-137.636216	955.723096	144.480123	55.572788	540.972871	331.307009	-163.433112	505.796185	144.284426	60.141992	174.733950	222.840835	-164.230428	101.165874	19.345656	56.974785	139.183094	183.833787	-162.268420	54.874678	-21.290606	54.103637	79.076204	369.526028	-172.553487	25.462420	202.000890	90.207942	1489.539630	172.576969	-268.749364	1448.076810	217.389603	171.830588	1205.212498	107.743579	-316.035544	1149.402471	235.957169	216.356948	948.428119	169.459130	-294.273473	925.780112	383.332490
773	7.72000	-58.833728	954.105185	144.696780	-90.152349	1519.133805	233.548095	-83.964892	1589.506045	387.994693	19.899753	953.169850	144.154499	-137.567281	955.040527	145.239050	55.159428	541.077782	333.698858	-164.032613	504.629146	141.600851	60.519799	170.906741	234.382035	-165.787030	102.913688	10.848780	57.550064	134.057194	196.260252	-163.844979	57.483011	-30.265254	53.863900	79.743543	384.514928	-174.318122	25.157826	191.104338	90.133747	1489.072341	172.077449	-268.922881	1447.881598	218.824469	171.397830	1204.948879	105.219054	-316.408951	1149.251751	239.204587	217.796661	947.396767	162.911108	-292.343822	927.364189	390.385205
